<svg id="visual" viewBox="0 0 1600 800" width="1600" height="800" xmlns="http://www.w3.org/2000/svg" xmlns:xlink="http://www.w3.org/1999/xlink" version="1.1"><g stroke-width="1" stroke-linejoin="bevel"><path d="M768 350L632 450L770 462Z" fill="#0a0a0a" stroke="#242424"></path><path d="M768 350L626 333L632 450Z" fill="#553191" stroke="#242424"></path><path d="M632 450L771 612L770 462Z" fill="#31204a" stroke="#242424"></path><path d="M768 350L616 166L626 333Z" fill="#553191" stroke="#242424"></path><path d="M626 333L459 484L632 450Z" fill="#673ab7" stroke="#242424"></path><path d="M452 301L459 484L626 333Z" fill="#673ab7" stroke="#242424"></path><path d="M632 450L625 660L771 612Z" fill="#4c2d7e" stroke="#242424"></path><path d="M483 636L625 660L632 450Z" fill="#281b3a" stroke="#242424"></path><path d="M956 624L969 453L770 462Z" fill="#43286c" stroke="#242424"></path><path d="M770 462L969 453L768 350Z" fill="#1f172a" stroke="#242424"></path><path d="M768 350L839 148L616 166Z" fill="#553191" stroke="#242424"></path><path d="M969 453L974 356L768 350Z" fill="#17121c" stroke="#242424"></path><path d="M616 166L452 301L626 333Z" fill="#17121c" stroke="#242424"></path><path d="M936 173L839 148L768 350Z" fill="#31204a" stroke="#242424"></path><path d="M459 484L483 636L632 450Z" fill="#17121c" stroke="#242424"></path><path d="M974 356L936 173L768 350Z" fill="#0a0a0a" stroke="#242424"></path><path d="M791 800L956 624L771 612Z" fill="#281b3a" stroke="#242424"></path><path d="M771 612L956 624L770 462Z" fill="#3a245b" stroke="#242424"></path><path d="M452 301L344 442L459 484Z" fill="#673ab7" stroke="#242424"></path><path d="M459 484L308 629L483 636Z" fill="#43286c" stroke="#242424"></path><path d="M625 0L462 126L616 166Z" fill="#3a245b" stroke="#242424"></path><path d="M616 166L462 126L452 301Z" fill="#281b3a" stroke="#242424"></path><path d="M452 301L312 292L344 442Z" fill="#4c2d7e" stroke="#242424"></path><path d="M969 453L1089 329L974 356Z" fill="#553191" stroke="#242424"></path><path d="M974 356L1089 329L936 173Z" fill="#3a245b" stroke="#242424"></path><path d="M1158 459L1089 329L969 453Z" fill="#4c2d7e" stroke="#242424"></path><path d="M474 800L640 800L625 660Z" fill="#281b3a" stroke="#242424"></path><path d="M625 660L791 800L771 612Z" fill="#553191" stroke="#242424"></path><path d="M640 800L791 800L625 660Z" fill="#0a0a0a" stroke="#242424"></path><path d="M348 132L312 292L452 301Z" fill="#673ab7" stroke="#242424"></path><path d="M955 0L763 0L839 148Z" fill="#3a245b" stroke="#242424"></path><path d="M839 148L763 0L616 166Z" fill="#31204a" stroke="#242424"></path><path d="M763 0L625 0L616 166Z" fill="#553191" stroke="#242424"></path><path d="M462 126L348 132L452 301Z" fill="#3a245b" stroke="#242424"></path><path d="M466 0L348 132L462 126Z" fill="#281b3a" stroke="#242424"></path><path d="M162 460L308 629L344 442Z" fill="#673ab7" stroke="#242424"></path><path d="M344 442L308 629L459 484Z" fill="#281b3a" stroke="#242424"></path><path d="M483 636L474 800L625 660Z" fill="#31204a" stroke="#242424"></path><path d="M1119 662L1158 459L969 453Z" fill="#3a245b" stroke="#242424"></path><path d="M1119 662L969 453L956 624Z" fill="#5e36a4" stroke="#242424"></path><path d="M308 629L474 800L483 636Z" fill="#0a0a0a" stroke="#242424"></path><path d="M625 0L466 0L462 126Z" fill="#5e36a4" stroke="#242424"></path><path d="M1138 144L955 0L936 173Z" fill="#553191" stroke="#242424"></path><path d="M936 173L955 0L839 148Z" fill="#31204a" stroke="#242424"></path><path d="M1138 144L936 173L1089 329Z" fill="#43286c" stroke="#242424"></path><path d="M791 800L987 800L956 624Z" fill="#673ab7" stroke="#242424"></path><path d="M987 800L1119 662L956 624Z" fill="#17121c" stroke="#242424"></path><path d="M1266 296L1138 144L1089 329Z" fill="#0a0a0a" stroke="#242424"></path><path d="M180 165L177 288L312 292Z" fill="#4c2d7e" stroke="#242424"></path><path d="M312 292L162 460L344 442Z" fill="#17121c" stroke="#242424"></path><path d="M180 165L312 292L348 132Z" fill="#3a245b" stroke="#242424"></path><path d="M177 288L162 460L312 292Z" fill="#673ab7" stroke="#242424"></path><path d="M308 629L297 800L474 800Z" fill="#5e36a4" stroke="#242424"></path><path d="M157 800L297 800L308 629Z" fill="#31204a" stroke="#242424"></path><path d="M1280 481L1266 296L1158 459Z" fill="#4c2d7e" stroke="#242424"></path><path d="M1158 459L1266 296L1089 329Z" fill="#3a245b" stroke="#242424"></path><path d="M987 800L1127 800L1119 662Z" fill="#281b3a" stroke="#242424"></path><path d="M1119 662L1280 481L1158 459Z" fill="#0a0a0a" stroke="#242424"></path><path d="M293 0L180 165L348 132Z" fill="#31204a" stroke="#242424"></path><path d="M0 499L129 620L162 460Z" fill="#281b3a" stroke="#242424"></path><path d="M466 0L293 0L348 132Z" fill="#281b3a" stroke="#242424"></path><path d="M1292 668L1280 481L1119 662Z" fill="#31204a" stroke="#242424"></path><path d="M1299 0L1132 0L1138 144Z" fill="#17121c" stroke="#242424"></path><path d="M1138 144L1132 0L955 0Z" fill="#673ab7" stroke="#242424"></path><path d="M0 343L162 460L177 288Z" fill="#0a0a0a" stroke="#242424"></path><path d="M162 460L129 620L308 629Z" fill="#4c2d7e" stroke="#242424"></path><path d="M1127 800L1292 668L1119 662Z" fill="#43286c" stroke="#242424"></path><path d="M1266 296L1313 171L1138 144Z" fill="#17121c" stroke="#242424"></path><path d="M1401 319L1313 171L1266 296Z" fill="#281b3a" stroke="#242424"></path><path d="M1401 319L1266 296L1280 481Z" fill="#673ab7" stroke="#242424"></path><path d="M129 620L157 800L308 629Z" fill="#17121c" stroke="#242424"></path><path d="M1127 800L1282 800L1292 668Z" fill="#1f172a" stroke="#242424"></path><path d="M293 0L136 0L180 165Z" fill="#553191" stroke="#242424"></path><path d="M0 134L0 343L177 288Z" fill="#4c2d7e" stroke="#242424"></path><path d="M1408 509L1280 481L1292 668Z" fill="#31204a" stroke="#242424"></path><path d="M1408 509L1401 319L1280 481Z" fill="#3a245b" stroke="#242424"></path><path d="M0 134L177 288L180 165Z" fill="#0a0a0a" stroke="#242424"></path><path d="M129 620L0 800L157 800Z" fill="#0a0a0a" stroke="#242424"></path><path d="M1425 648L1408 509L1292 668Z" fill="#673ab7" stroke="#242424"></path><path d="M0 343L0 499L162 460Z" fill="#17121c" stroke="#242424"></path><path d="M1414 0L1299 0L1313 171Z" fill="#553191" stroke="#242424"></path><path d="M1313 171L1299 0L1138 144Z" fill="#1f172a" stroke="#242424"></path><path d="M0 499L0 601L129 620Z" fill="#553191" stroke="#242424"></path><path d="M136 0L0 134L180 165Z" fill="#43286c" stroke="#242424"></path><path d="M1403 800L1425 648L1292 668Z" fill="#31204a" stroke="#242424"></path><path d="M1600 305L1448 153L1401 319Z" fill="#17121c" stroke="#242424"></path><path d="M1401 319L1448 153L1313 171Z" fill="#673ab7" stroke="#242424"></path><path d="M1600 459L1401 319L1408 509Z" fill="#31204a" stroke="#242424"></path><path d="M1282 800L1403 800L1292 668Z" fill="#281b3a" stroke="#242424"></path><path d="M0 601L0 800L129 620Z" fill="#17121c" stroke="#242424"></path><path d="M136 0L0 0L0 134Z" fill="#1f172a" stroke="#242424"></path><path d="M1448 153L1414 0L1313 171Z" fill="#553191" stroke="#242424"></path><path d="M1600 641L1408 509L1425 648Z" fill="#281b3a" stroke="#242424"></path><path d="M1600 641L1600 459L1408 509Z" fill="#43286c" stroke="#242424"></path><path d="M1448 153L1600 0L1414 0Z" fill="#3a245b" stroke="#242424"></path><path d="M1600 459L1600 305L1401 319Z" fill="#673ab7" stroke="#242424"></path><path d="M1600 800L1600 641L1425 648Z" fill="#31204a" stroke="#242424"></path><path d="M1600 305L1600 156L1448 153Z" fill="#31204a" stroke="#242424"></path><path d="M1403 800L1600 800L1425 648Z" fill="#17121c" stroke="#242424"></path><path d="M1600 156L1600 0L1448 153Z" fill="#673ab7" stroke="#242424"></path></g></svg>