<svg id="visual" viewBox="0 0 1600 800" width="1600" height="800" xmlns="http://www.w3.org/2000/svg" xmlns:xlink="http://www.w3.org/1999/xlink" version="1.1"><rect x="0" y="0" width="1600" height="800" fill="#0a0a0a"></rect><path d="M0 598L267 527L533 540L800 359L1067 320L1333 452L1600 348L1600 0L1333 0L1067 0L800 0L533 0L267 0L0 0Z" fill="#f48fb1"></path><path d="M0 495L267 347L533 357L800 462L1067 423L1333 402L1600 471L1600 0L1333 0L1067 0L800 0L533 0L267 0L0 0Z" fill="#e67aaa"></path><path d="M0 439L267 236L533 265L800 424L1067 273L1333 449L1600 447L1600 0L1333 0L1067 0L800 0L533 0L267 0L0 0Z" fill="#d765a6"></path><path d="M0 201L267 281L533 195L800 297L1067 280L1333 182L1600 380L1600 0L1333 0L1067 0L800 0L533 0L267 0L0 0Z" fill="#c551a3"></path><path d="M0 150L267 164L533 236L800 167L1067 246L1333 157L1600 272L1600 0L1333 0L1067 0L800 0L533 0L267 0L0 0Z" fill="#b03ea2"></path><path d="M0 110L267 96L533 154L800 105L1067 171L1333 133L1600 219L1600 0L1333 0L1067 0L800 0L533 0L267 0L0 0Z" fill="#982da2"></path><path d="M0 127L267 129L533 114L800 47L1067 134L1333 55L1600 53L1600 0L1333 0L1067 0L800 0L533 0L267 0L0 0Z" fill="#7b1fa2"></path></svg>