<svg id="visual" viewBox="0 0 900 600" width="900" height="600" xmlns="http://www.w3.org/2000/svg" xmlns:xlink="http://www.w3.org/1999/xlink" version="1.1"><rect x="0" y="0" width="900" height="600" fill="#0a0a0a"></rect><path d="M0 442L129 409L257 269L386 287L514 353L643 216L771 290L900 241L900 0L771 0L643 0L514 0L386 0L257 0L129 0L0 0Z" fill="#f48fb1"></path><path d="M0 356L129 224L257 284L386 391L514 295L643 225L771 291L900 207L900 0L771 0L643 0L514 0L386 0L257 0L129 0L0 0Z" fill="#e67aaa"></path><path d="M0 336L129 329L257 316L386 263L514 252L643 178L771 218L900 269L900 0L771 0L643 0L514 0L386 0L257 0L129 0L0 0Z" fill="#d765a6"></path><path d="M0 174L129 215L257 146L386 276L514 218L643 209L771 160L900 195L900 0L771 0L643 0L514 0L386 0L257 0L129 0L0 0Z" fill="#c551a3"></path><path d="M0 92L129 212L257 116L386 196L514 205L643 89L771 170L900 145L900 0L771 0L643 0L514 0L386 0L257 0L129 0L0 0Z" fill="#b03ea2"></path><path d="M0 135L129 147L257 57L386 76L514 153L643 155L771 62L900 125L900 0L771 0L643 0L514 0L386 0L257 0L129 0L0 0Z" fill="#982da2"></path><path d="M0 50L129 33L257 41L386 61L514 79L643 60L771 84L900 100L900 0L771 0L643 0L514 0L386 0L257 0L129 0L0 0Z" fill="#7b1fa2"></path></svg>