<svg id="visual" viewBox="0 0 1600 800" width="1600" height="800" xmlns="http://www.w3.org/2000/svg" xmlns:xlink="http://www.w3.org/1999/xlink" version="1.1"><rect x="0" y="0" width="1600" height="800" fill="#0a0a0a"></rect><path d="M0 446L33.3 439.5C66.7 433 133.3 420 200 394.8C266.7 369.7 333.3 332.3 400 353.2C466.7 374 533.3 453 600 474.7C666.7 496.3 733.3 460.7 800 444.2C866.7 427.7 933.3 430.3 1000 405.8C1066.7 381.3 1133.3 329.7 1200 343.5C1266.7 357.3 1333.3 436.7 1400 450.3C1466.7 464 1533.3 412 1566.7 386L1600 360L1600 0L1566.7 0C1533.3 0 1466.7 0 1400 0C1333.3 0 1266.7 0 1200 0C1133.3 0 1066.7 0 1000 0C933.3 0 866.7 0 800 0C733.3 0 666.7 0 600 0C533.3 0 466.7 0 400 0C333.3 0 266.7 0 200 0C133.3 0 66.7 0 33.3 0L0 0Z" fill="#535353" stroke-linecap="round" stroke-linejoin="miter"></path></svg>