<svg id="visual" viewBox="0 0 900 600" width="900" height="600" xmlns="http://www.w3.org/2000/svg" xmlns:xlink="http://www.w3.org/1999/xlink" version="1.1"><rect x="0" y="0" width="900" height="600" fill="#0a0a0a"></rect><path d="M0 342L129 367L257 331L386 278L514 257L643 234L771 329L900 410L900 0L771 0L643 0L514 0L386 0L257 0L129 0L0 0Z" fill="#f48fb1"></path><path d="M0 314L129 292L257 337L386 383L514 376L643 175L771 252L900 304L900 0L771 0L643 0L514 0L386 0L257 0L129 0L0 0Z" fill="#e67aaa"></path><path d="M0 221L129 333L257 279L386 275L514 176L643 254L771 168L900 172L900 0L771 0L643 0L514 0L386 0L257 0L129 0L0 0Z" fill="#d765a6"></path><path d="M0 199L129 179L257 124L386 142L514 241L643 253L771 172L900 191L900 0L771 0L643 0L514 0L386 0L257 0L129 0L0 0Z" fill="#c551a3"></path><path d="M0 125L129 187L257 103L386 170L514 221L643 98L771 140L900 133L900 0L771 0L643 0L514 0L386 0L257 0L129 0L0 0Z" fill="#b03ea2"></path><path d="M0 149L129 123L257 161L386 75L514 85L643 58L771 141L900 108L900 0L771 0L643 0L514 0L386 0L257 0L129 0L0 0Z" fill="#982da2"></path><path d="M0 75L129 63L257 30L386 53L514 41L643 29L771 89L900 80L900 0L771 0L643 0L514 0L386 0L257 0L129 0L0 0Z" fill="#7b1fa2"></path></svg>