<svg id="visual" viewBox="0 0 1600 800" width="1600" height="800" xmlns="http://www.w3.org/2000/svg" xmlns:xlink="http://www.w3.org/1999/xlink" version="1.1"><rect x="0" y="0" width="1600" height="800" fill="#0a0a0a"></rect><path d="M0 603L267 557L533 327L800 448L1067 425L1333 507L1600 445L1600 0L1333 0L1067 0L800 0L533 0L267 0L0 0Z" fill="#f48fb1"></path><path d="M0 482L267 489L533 524L800 506L1067 461L1333 470L1600 352L1600 0L1333 0L1067 0L800 0L533 0L267 0L0 0Z" fill="#e67aaa"></path><path d="M0 318L267 334L533 350L800 377L1067 340L1333 374L1600 388L1600 0L1333 0L1067 0L800 0L533 0L267 0L0 0Z" fill="#d765a6"></path><path d="M0 332L267 191L533 198L800 252L1067 242L1333 339L1600 368L1600 0L1333 0L1067 0L800 0L533 0L267 0L0 0Z" fill="#c551a3"></path><path d="M0 161L267 173L533 238L800 182L1067 183L1333 213L1600 191L1600 0L1333 0L1067 0L800 0L533 0L267 0L0 0Z" fill="#b03ea2"></path><path d="M0 161L267 160L533 199L800 140L1067 218L1333 195L1600 198L1600 0L1333 0L1067 0L800 0L533 0L267 0L0 0Z" fill="#982da2"></path><path d="M0 129L267 112L533 45L800 117L1067 100L1333 45L1600 48L1600 0L1333 0L1067 0L800 0L533 0L267 0L0 0Z" fill="#7b1fa2"></path></svg>