<svg id="visual" viewBox="0 0 1600 800" width="1600" height="800" xmlns="http://www.w3.org/2000/svg" xmlns:xlink="http://www.w3.org/1999/xlink" version="1.1"><g stroke-width="1" stroke-linejoin="bevel"><path d="M774 339L671 487L813 490Z" fill="#17121c" stroke="#242424"></path><path d="M774 339L602 296L671 487Z" fill="#5e36a4" stroke="#242424"></path><path d="M502 441L672 622L671 487Z" fill="#31204a" stroke="#242424"></path><path d="M671 487L672 622L813 490Z" fill="#673ab7" stroke="#242424"></path><path d="M813 490L946 316L774 339Z" fill="#17121c" stroke="#242424"></path><path d="M774 339L630 186L602 296Z" fill="#3a245b" stroke="#242424"></path><path d="M672 622L760 664L813 490Z" fill="#43286c" stroke="#242424"></path><path d="M813 490L976 484L946 316Z" fill="#17121c" stroke="#242424"></path><path d="M996 609L976 484L813 490Z" fill="#43286c" stroke="#242424"></path><path d="M602 296L502 441L671 487Z" fill="#3a245b" stroke="#242424"></path><path d="M819 160L630 186L774 339Z" fill="#281b3a" stroke="#242424"></path><path d="M602 296L446 307L502 441Z" fill="#281b3a" stroke="#242424"></path><path d="M946 316L819 160L774 339Z" fill="#31204a" stroke="#242424"></path><path d="M760 664L996 609L813 490Z" fill="#17121c" stroke="#242424"></path><path d="M479 145L446 307L602 296Z" fill="#43286c" stroke="#242424"></path><path d="M320 615L450 652L502 441Z" fill="#1f172a" stroke="#242424"></path><path d="M502 441L450 652L672 622Z" fill="#43286c" stroke="#242424"></path><path d="M638 800L818 800L760 664Z" fill="#5e36a4" stroke="#242424"></path><path d="M638 800L760 664L672 622Z" fill="#31204a" stroke="#242424"></path><path d="M760 664L924 800L996 609Z" fill="#0a0a0a" stroke="#242424"></path><path d="M1126 290L980 127L946 316Z" fill="#281b3a" stroke="#242424"></path><path d="M946 316L980 127L819 160Z" fill="#4c2d7e" stroke="#242424"></path><path d="M627 0L479 145L630 186Z" fill="#5e36a4" stroke="#242424"></path><path d="M1126 290L946 316L976 484Z" fill="#43286c" stroke="#242424"></path><path d="M799 0L630 186L819 160Z" fill="#673ab7" stroke="#242424"></path><path d="M630 186L479 145L602 296Z" fill="#4c2d7e" stroke="#242424"></path><path d="M450 652L638 800L672 622Z" fill="#1f172a" stroke="#242424"></path><path d="M1098 615L1124 513L996 609Z" fill="#0a0a0a" stroke="#242424"></path><path d="M996 609L1124 513L976 484Z" fill="#673ab7" stroke="#242424"></path><path d="M1087 800L1098 615L996 609Z" fill="#3a245b" stroke="#242424"></path><path d="M1124 513L1126 290L976 484Z" fill="#1f172a" stroke="#242424"></path><path d="M818 800L924 800L760 664Z" fill="#1f172a" stroke="#242424"></path><path d="M344 163L348 297L446 307Z" fill="#17121c" stroke="#242424"></path><path d="M446 307L298 463L502 441Z" fill="#4c2d7e" stroke="#242424"></path><path d="M980 127L799 0L819 160Z" fill="#17121c" stroke="#242424"></path><path d="M799 0L627 0L630 186Z" fill="#0a0a0a" stroke="#242424"></path><path d="M348 297L298 463L446 307Z" fill="#43286c" stroke="#242424"></path><path d="M450 652L480 800L638 800Z" fill="#17121c" stroke="#242424"></path><path d="M310 800L480 800L450 652Z" fill="#1f172a" stroke="#242424"></path><path d="M298 463L320 615L502 441Z" fill="#553191" stroke="#242424"></path><path d="M479 145L344 163L446 307Z" fill="#43286c" stroke="#242424"></path><path d="M160 347L179 515L298 463Z" fill="#17121c" stroke="#242424"></path><path d="M333 0L344 163L479 145Z" fill="#43286c" stroke="#242424"></path><path d="M1118 0L992 0L980 127Z" fill="#553191" stroke="#242424"></path><path d="M980 127L992 0L799 0Z" fill="#673ab7" stroke="#242424"></path><path d="M627 0L489 0L479 145Z" fill="#281b3a" stroke="#242424"></path><path d="M1308 138L1141 127L1126 290Z" fill="#31204a" stroke="#242424"></path><path d="M1126 290L1141 127L980 127Z" fill="#281b3a" stroke="#242424"></path><path d="M924 800L1087 800L996 609Z" fill="#1f172a" stroke="#242424"></path><path d="M1098 615L1256 517L1124 513Z" fill="#553191" stroke="#242424"></path><path d="M1304 606L1256 517L1098 615Z" fill="#5e36a4" stroke="#242424"></path><path d="M1124 513L1303 334L1126 290Z" fill="#1f172a" stroke="#242424"></path><path d="M1256 517L1303 334L1124 513Z" fill="#1f172a" stroke="#242424"></path><path d="M1245 0L1118 0L1141 127Z" fill="#0a0a0a" stroke="#242424"></path><path d="M1141 127L1118 0L980 127Z" fill="#5e36a4" stroke="#242424"></path><path d="M160 347L298 463L348 297Z" fill="#43286c" stroke="#242424"></path><path d="M298 463L179 515L320 615Z" fill="#281b3a" stroke="#242424"></path><path d="M320 615L310 800L450 652Z" fill="#0a0a0a" stroke="#242424"></path><path d="M187 665L310 800L320 615Z" fill="#0a0a0a" stroke="#242424"></path><path d="M1260 800L1304 606L1098 615Z" fill="#673ab7" stroke="#242424"></path><path d="M1465 517L1442 315L1303 334Z" fill="#553191" stroke="#242424"></path><path d="M142 134L348 297L344 163Z" fill="#17121c" stroke="#242424"></path><path d="M142 134L160 347L348 297Z" fill="#17121c" stroke="#242424"></path><path d="M489 0L333 0L479 145Z" fill="#673ab7" stroke="#242424"></path><path d="M126 800L187 665L0 624Z" fill="#0a0a0a" stroke="#242424"></path><path d="M179 515L187 665L320 615Z" fill="#31204a" stroke="#242424"></path><path d="M1303 334L1308 138L1126 290Z" fill="#281b3a" stroke="#242424"></path><path d="M1442 315L1308 138L1303 334Z" fill="#5e36a4" stroke="#242424"></path><path d="M1087 800L1260 800L1098 615Z" fill="#0a0a0a" stroke="#242424"></path><path d="M1308 138L1245 0L1141 127Z" fill="#281b3a" stroke="#242424"></path><path d="M192 0L142 134L344 163Z" fill="#4c2d7e" stroke="#242424"></path><path d="M333 0L192 0L344 163Z" fill="#673ab7" stroke="#242424"></path><path d="M1465 517L1256 517L1304 606Z" fill="#0a0a0a" stroke="#242424"></path><path d="M1465 517L1303 334L1256 517Z" fill="#0a0a0a" stroke="#242424"></path><path d="M1308 138L1473 0L1245 0Z" fill="#553191" stroke="#242424"></path><path d="M1416 800L1424 635L1304 606Z" fill="#3a245b" stroke="#242424"></path><path d="M0 624L187 665L179 515Z" fill="#553191" stroke="#242424"></path><path d="M187 665L126 800L310 800Z" fill="#673ab7" stroke="#242424"></path><path d="M0 498L179 515L160 347Z" fill="#5e36a4" stroke="#242424"></path><path d="M1424 635L1465 517L1304 606Z" fill="#0a0a0a" stroke="#242424"></path><path d="M0 349L0 498L160 347Z" fill="#0a0a0a" stroke="#242424"></path><path d="M0 349L160 347L0 192Z" fill="#3a245b" stroke="#242424"></path><path d="M0 192L160 347L142 134Z" fill="#17121c" stroke="#242424"></path><path d="M1600 305L1457 150L1442 315Z" fill="#31204a" stroke="#242424"></path><path d="M1442 315L1457 150L1308 138Z" fill="#43286c" stroke="#242424"></path><path d="M0 498L0 624L179 515Z" fill="#5e36a4" stroke="#242424"></path><path d="M1260 800L1416 800L1304 606Z" fill="#281b3a" stroke="#242424"></path><path d="M1600 610L1600 513L1465 517Z" fill="#3a245b" stroke="#242424"></path><path d="M0 0L0 192L142 134Z" fill="#17121c" stroke="#242424"></path><path d="M0 624L0 800L126 800Z" fill="#0a0a0a" stroke="#242424"></path><path d="M1600 141L1473 0L1457 150Z" fill="#4c2d7e" stroke="#242424"></path><path d="M1457 150L1473 0L1308 138Z" fill="#17121c" stroke="#242424"></path><path d="M192 0L0 0L142 134Z" fill="#0a0a0a" stroke="#242424"></path><path d="M1600 610L1465 517L1424 635Z" fill="#5e36a4" stroke="#242424"></path><path d="M1465 517L1600 305L1442 315Z" fill="#17121c" stroke="#242424"></path><path d="M1600 513L1600 305L1465 517Z" fill="#3a245b" stroke="#242424"></path><path d="M1600 800L1600 610L1424 635Z" fill="#5e36a4" stroke="#242424"></path><path d="M1600 305L1600 141L1457 150Z" fill="#17121c" stroke="#242424"></path><path d="M1416 800L1600 800L1424 635Z" fill="#5e36a4" stroke="#242424"></path><path d="M1600 141L1600 0L1473 0Z" fill="#17121c" stroke="#242424"></path></g></svg>