<svg id="visual" viewBox="0 0 1600 800" width="1600" height="800" xmlns="http://www.w3.org/2000/svg" xmlns:xlink="http://www.w3.org/1999/xlink" version="1.1"><rect x="0" y="0" width="1600" height="800" fill="#0a0a0a"></rect><path d="M0 434L33.3 448.8C66.7 463.7 133.3 493.3 200 469.8C266.7 446.3 333.3 369.7 400 319.8C466.7 270 533.3 247 600 272.3C666.7 297.7 733.3 371.3 800 372.2C866.7 373 933.3 301 1000 292.3C1066.7 283.7 1133.3 338.3 1200 371.5C1266.7 404.7 1333.3 416.3 1400 386.8C1466.7 357.3 1533.3 286.7 1566.7 251.3L1600 216L1600 0L1566.7 0C1533.3 0 1466.7 0 1400 0C1333.3 0 1266.7 0 1200 0C1133.3 0 1066.7 0 1000 0C933.3 0 866.7 0 800 0C733.3 0 666.7 0 600 0C533.3 0 466.7 0 400 0C333.3 0 266.7 0 200 0C133.3 0 66.7 0 33.3 0L0 0Z" fill="#535353" stroke-linecap="round" stroke-linejoin="miter"></path></svg>